<svg xmlns="http://www.w3.org/2000/svg" width="37" height="32"><path fill="#0669de" d="M28.19 9.905c0 5.496-4.424 9.905-9.905 9.905S8.38 15.402 8.38 9.905C8.38 4.424 12.804 0 18.285 0s9.905 4.424 9.905 9.905zM34.883 32c-1.117 0-1.637-.693-1.637-1.309 0-2.866-5.481-4.786-14.961-4.786S3.324 27.636 3.324 30.691c0 .617-.625 1.309-1.664 1.309-1.115 0-1.661-.742-1.661-1.359 0-4.8 7.006-7.784 18.286-7.784s18.286 2.984 18.286 7.784c0 .617-.608 1.359-1.688 1.359z"/><path fill="#fff" d="M25.143 10.007c0 3.788-3.069 6.856-6.857 6.856s-6.857-3.067-6.857-6.856c0-3.773 3.069-6.857 6.857-6.857s6.857 3.084 6.857 6.857z"/></svg>