<svg aria-hidden="true" style="position:absolute;width:0;height:0" xmlns="http://www.w3.org/2000/svg" overflow="hidden"><defs><symbol id="icon-lupa" viewBox="0 0 32 32"><path fill="var(--color1, #0669de)" d="M12 20.8A8.796 8.796 0 013.2 12 8.797 8.797 0 0112 3.198c4.848 0 8.8 3.938 8.8 8.802 0 4.862-3.952 8.8-8.8 8.8zM12 0C5.36 0 0 5.376 0 12s5.36 12 12 12c6.624 0 12-5.376 12-12S18.624 0 12 0z"/><path fill="var(--color1, #0669de)" d="M30.752 30.77c-.626.626-1.672.592-2.338-.074l-9.645-9.645c-.666-.667-.699-1.714-.075-2.338.626-.626 1.672-.59 2.338.074l9.646 9.645c.666.667.699 1.712.074 2.338z"/></symbol><symbol id="icon-user" viewBox="0 0 37 32"><path fill="var(--color1, #0669de)" d="M28.19 9.905c0 5.496-4.424 9.905-9.905 9.905S8.38 15.402 8.38 9.905C8.38 4.424 12.804 0 18.285 0s9.905 4.424 9.905 9.905zM34.883 32c-1.117 0-1.637-.693-1.637-1.309 0-2.866-5.481-4.786-14.961-4.786S3.324 27.636 3.324 30.691c0 .617-.625 1.309-1.664 1.309-1.115 0-1.661-.742-1.661-1.359 0-4.8 7.006-7.784 18.286-7.784s18.286 2.984 18.286 7.784c0 .617-.608 1.359-1.688 1.359z"/><path fill="var(--color2, #fff)" d="M25.143 10.007c0 3.788-3.069 6.856-6.857 6.856s-6.857-3.067-6.857-6.856c0-3.773 3.069-6.857 6.857-6.857s6.857 3.084 6.857 6.857z"/></symbol><symbol id="icon-chevron-right" viewBox="0 0 20 20"><path d="M9.163 4.516c.418.408 4.502 4.695 4.502 4.695a1.095 1.095 0 010 1.576s-4.084 4.289-4.502 4.695c-.418.408-1.17.436-1.615 0-.446-.434-.481-1.041 0-1.574L11.295 10 7.548 6.092c-.481-.533-.446-1.141 0-1.576s1.197-.409 1.615 0z"/></symbol><symbol id="icon-chevron-small-down" viewBox="0 0 20 20"><path d="M13.418 7.859c.271-.268.709-.268.978 0s.272.701 0 .969l-3.908 3.83a.697.697 0 01-.979 0l-3.908-3.83c-.27-.267-.27-.701 0-.969s.709-.268.978 0L10 11l3.418-3.141z"/></symbol><symbol id="icon-user1" viewBox="0 0 32 32"><path d="M18 22.082v-1.649c2.203-1.241 4-4.337 4-7.432 0-4.971 0-9-6-9s-6 4.029-6 9c0 3.096 1.797 6.191 4 7.432v1.649C7.216 22.637 2 25.97 2 30h28c0-4.03-5.216-7.364-12-7.918z"/></symbol><symbol id="icon-search" viewBox="0 0 32 32"><path d="M31.008 27.231l-7.58-6.447c-.784-.705-1.622-1.029-2.299-.998a11.954 11.954 0 002.87-7.787c0-6.627-5.373-12-12-12s-12 5.373-12 12 5.373 12 12 12c2.972 0 5.691-1.081 7.787-2.87-.031.677.293 1.515.998 2.299l6.447 7.58c1.104 1.226 2.907 1.33 4.007.23s.997-2.903-.23-4.007zM12 20a8 8 0 110-16 8 8 0 010 16z"/></symbol></defs></svg>