<!-- Generated by IcoMoon.io -->
<svg version="1.1" xmlns="http://www.w3.org/2000/svg" width="32" height="32" viewBox="0 0 32 32">
<title>lupa</title>
<path fill="#0669de" d="M12 20.8c-4.864 0-8.8-3.938-8.8-8.8 0-4.864 3.936-8.802 8.8-8.802 4.848 0 8.8 3.938 8.8 8.802 0 4.862-3.952 8.8-8.8 8.8zM12 0c-6.64 0-12 5.376-12 12s5.36 12 12 12c6.624 0 12-5.376 12-12s-5.376-12-12-12z"></path>
<path fill="#0669de" d="M30.752 30.77c-0.626 0.626-1.672 0.592-2.338-0.074l-9.645-9.645c-0.666-0.667-0.699-1.714-0.075-2.338 0.626-0.626 1.672-0.59 2.338 0.074l9.646 9.645c0.666 0.667 0.699 1.712 0.074 2.338z"></path>
</svg>
