<!-- Generated by IcoMoon.io -->
<svg version="1.1" xmlns="http://www.w3.org/2000/svg" width="37" height="32" viewBox="0 0 37 32">
<title>user</title>
<path fill="#0669de" d="M28.19 9.905c0 5.496-4.424 9.905-9.905 9.905s-9.905-4.408-9.905-9.905c0-5.481 4.424-9.905 9.905-9.905s9.905 4.424 9.905 9.905z"></path>
<path fill="#0669de" d="M34.883 32c-1.117 0-1.637-0.693-1.637-1.309 0-2.866-5.481-4.786-14.961-4.786s-14.961 1.731-14.961 4.786c0 0.617-0.625 1.309-1.664 1.309-1.115 0-1.661-0.742-1.661-1.359 0-4.8 7.006-7.784 18.286-7.784s18.286 2.984 18.286 7.784c0 0.617-0.608 1.359-1.688 1.359z"></path>
<path fill="#fff" d="M25.143 10.007c0 3.788-3.069 6.856-6.857 6.856s-6.857-3.067-6.857-6.856c0-3.773 3.069-6.857 6.857-6.857s6.857 3.084 6.857 6.857z"></path>
</svg>
