<svg aria-hidden="true" style="position: absolute; width: 0; height: 0; overflow: hidden;" version="1.1" xmlns="http://www.w3.org/2000/svg" xmlns:xlink="http://www.w3.org/1999/xlink">
<defs>
<symbol id="icon-lupa" viewBox="0 0 32 32">
<title>lupa</title>
<path fill="#0669de" style="fill: var(--color1, #0669de)" d="M12 20.8c-4.864 0-8.8-3.938-8.8-8.8 0-4.864 3.936-8.802 8.8-8.802 4.848 0 8.8 3.938 8.8 8.802 0 4.862-3.952 8.8-8.8 8.8zM12 0c-6.64 0-12 5.376-12 12s5.36 12 12 12c6.624 0 12-5.376 12-12s-5.376-12-12-12z"></path>
<path fill="#0669de" style="fill: var(--color1, #0669de)" d="M30.752 30.77c-0.626 0.626-1.672 0.592-2.338-0.074l-9.645-9.645c-0.666-0.667-0.699-1.714-0.075-2.338 0.626-0.626 1.672-0.59 2.338 0.074l9.646 9.645c0.666 0.667 0.699 1.712 0.074 2.338z"></path>
</symbol>
<symbol id="icon-user" viewBox="0 0 37 32">
<title>user</title>
<path fill="#0669de" style="fill: var(--color1, #0669de)" d="M28.19 9.905c0 5.496-4.424 9.905-9.905 9.905s-9.905-4.408-9.905-9.905c0-5.481 4.424-9.905 9.905-9.905s9.905 4.424 9.905 9.905z"></path>
<path fill="#0669de" style="fill: var(--color1, #0669de)" d="M34.883 32c-1.117 0-1.637-0.693-1.637-1.309 0-2.866-5.481-4.786-14.961-4.786s-14.961 1.731-14.961 4.786c0 0.617-0.625 1.309-1.664 1.309-1.115 0-1.661-0.742-1.661-1.359 0-4.8 7.006-7.784 18.286-7.784s18.286 2.984 18.286 7.784c0 0.617-0.608 1.359-1.688 1.359z"></path>
<path fill="#fff" style="fill: var(--color2, #fff)" d="M25.143 10.007c0 3.788-3.069 6.856-6.857 6.856s-6.857-3.067-6.857-6.856c0-3.773 3.069-6.857 6.857-6.857s6.857 3.084 6.857 6.857z"></path>
</symbol>
<symbol id="icon-chevron-right" viewBox="0 0 20 20">
<title>chevron-right</title>
<path d="M9.163 4.516c0.418 0.408 4.502 4.695 4.502 4.695 0.223 0.219 0.335 0.504 0.335 0.789s-0.112 0.57-0.335 0.787c0 0-4.084 4.289-4.502 4.695-0.418 0.408-1.17 0.436-1.615 0-0.446-0.434-0.481-1.041 0-1.574l3.747-3.908-3.747-3.908c-0.481-0.533-0.446-1.141 0-1.576s1.197-0.409 1.615 0z"></path>
</symbol>
<symbol id="icon-chevron-small-down" viewBox="0 0 20 20">
<title>chevron-small-down</title>
<path d="M13.418 7.859c0.271-0.268 0.709-0.268 0.978 0s0.272 0.701 0 0.969l-3.908 3.83c-0.27 0.268-0.707 0.268-0.979 0l-3.908-3.83c-0.27-0.267-0.27-0.701 0-0.969s0.709-0.268 0.978 0l3.421 3.141 3.418-3.141z"></path>
</symbol>
<symbol id="icon-user1" viewBox="0 0 32 32">
<title>user1</title>
<path d="M18 22.082v-1.649c2.203-1.241 4-4.337 4-7.432 0-4.971 0-9-6-9s-6 4.029-6 9c0 3.096 1.797 6.191 4 7.432v1.649c-6.784 0.555-12 3.888-12 7.918h28c0-4.030-5.216-7.364-12-7.918z"></path>
</symbol>
<symbol id="icon-search" viewBox="0 0 32 32">
<title>search</title>
<path d="M31.008 27.231l-7.58-6.447c-0.784-0.705-1.622-1.029-2.299-0.998 1.789-2.096 2.87-4.815 2.87-7.787 0-6.627-5.373-12-12-12s-12 5.373-12 12 5.373 12 12 12c2.972 0 5.691-1.081 7.787-2.87-0.031 0.677 0.293 1.515 0.998 2.299l6.447 7.58c1.104 1.226 2.907 1.33 4.007 0.23s0.997-2.903-0.23-4.007zM12 20c-4.418 0-8-3.582-8-8s3.582-8 8-8 8 3.582 8 8-3.582 8-8 8z"></path>
</symbol>
</defs>
</svg>
